<svg xmlns="http://www.w3.org/2000/svg" width="205" height="205" viewBox="0 0 205 205">
  <g id="Group_282" data-name="Group 282" transform="translate(-324 -4178)">
    <circle id="Ellipse_2" data-name="Ellipse 2" cx="102.5" cy="102.5" r="102.5" transform="translate(324 4178)" fill="#f9f9f9"/>
    <g id="Group_203" data-name="Group 203" transform="translate(191.909 3957.284)">
      <path id="Path_837" data-name="Path 837" d="M206.824,288.2c.463-5.159,2.122-7.328,5.519-7.453,3.36-.123,5.122,2.071,5.828,7.347h25.68c0-2.316-.008-4.692,2.132-6.073a7.249,7.249,0,0,1,3.5-1.212c3.206-.1,4.6,1.791,5.744,7.391,1.505,0,3.05-.009,4.594,0,6.1.042,9.809,3.7,9.825,9.778q.039,15.047-.013,30.095a3.334,3.334,0,0,0,1.152,2.685,20.019,20.019,0,0,1,4.8,22.214,20.3,20.3,0,0,1-33.556,6.385,3.886,3.886,0,0,0-2.49-1.061c-12.337-.067-24.678-.2-37.011.018-6.3.111-10.481-4.221-10.438-10.4q.172-24.732,0-49.465c-.039-6.2,4.255-10.691,10.339-10.268C203.858,288.285,205.295,288.2,206.824,288.2Zm59.13,18.53H195.861v2q0,19.627,0,39.254c0,4.541,2.1,6.656,6.65,6.658q17.119.009,34.239,0c.542,0,1.084-.067,1.771-.113-3.572-8.753-2.716-16.744,3.932-23.421,6.7-6.729,14.751-7.552,23.5-4Zm-9.207,55.261a16.616,16.616,0,1,0-16.587-16.6A16.669,16.669,0,0,0,256.747,361.992Zm-60.872-59.233h70.063a56.848,56.848,0,0,0-.044-6.12,5.007,5.007,0,0,0-4.6-4.658,55.716,55.716,0,0,0-6.217-.046c-.039.477-.084.872-.1,1.269-.165,3.565-2.439,6.039-5.57,6.054-3.159.015-5.388-2.365-5.476-6.026-.028-1.166-.428-1.451-1.522-1.446-7.728.037-15.457.018-23.185.028a7.553,7.553,0,0,0-1.109.158c-.427,4.983-2.114,7.178-5.522,7.286-3.321.1-5.011-2-5.855-7.529a64.929,64.929,0,0,0-6.627.358,5.082,5.082,0,0,0-4.215,4.836C195.791,298.812,195.875,300.713,195.875,302.759Zm55.363-12.736c0-1.209.034-2.419-.01-3.627-.042-1.139-.724-2.019-1.8-1.839-.7.116-1.739,1.016-1.79,1.633a47.24,47.24,0,0,0-.01,7.582,2.594,2.594,0,0,0,1.76,1.677c1.076.2,1.786-.662,1.839-1.8C251.28,292.443,251.236,291.233,251.238,290.023Zm-36.963.011h-.006c0-1.206.008-2.413,0-3.619a1.7,1.7,0,0,0-1.756-1.913,1.668,1.668,0,0,0-1.814,1.848c-.021,2.413-.015,4.826-.007,7.239a1.689,1.689,0,0,0,1.756,1.913c1.253.011,1.828-.794,1.829-2.02Q214.276,291.759,214.275,290.035Z" fill="#b09a51"/>
      <path id="Path_838" data-name="Path 838" d="M277.628,456.98c.22,2.058-.078,4.1-2.188,4.959a7.82,7.82,0,0,1-6.987-.214c-2.771-1.612-2.753-7.779-.1-9.609,1.568-1.083,6.084-1.063,7.614.043C277.633,453.366,277.791,455.111,277.628,456.98Zm-7.18-1.767v3.4h3.322V455.12c-.9,0-1.641-.007-2.384,0C271.109,455.128,270.833,455.175,270.448,455.213Z" transform="translate(-48.571 -111.543)" fill="#b09a51"/>
      <path id="Path_839" data-name="Path 839" d="M272.5,366.292c4.385,0,5.577,1.164,5.577,5.45s-1.3,5.624-5.487,5.626c-4.365,0-5.578-1.278-5.577-5.882C267.016,367.5,268.291,366.293,272.5,366.292Zm1.641,7.268c.621-3.692.123-4.2-3.277-3.4v3.4Z" transform="translate(-48.994 -55.942)" fill="#b09a51"/>
      <path id="Path_840" data-name="Path 840" d="M277.828,414.511c.173,1.944-.12,4.207-2.512,4.819a13.154,13.154,0,0,1-6.079-.012c-2.271-.539-2.942-3.015-2.458-7.009a4.044,4.044,0,0,1,3.642-3.579,15.567,15.567,0,0,1,3.786.007C276.8,409.084,277.828,410.744,277.828,414.511Zm-7.253,1.475h3.391v-3.494h-3.391Z" transform="translate(-48.744 -83.62)" fill="#b09a51"/>
      <path id="Path_841" data-name="Path 841" d="M235.28,457.018c0,4.424-1.153,5.562-5.64,5.561-4.1,0-5.435-1.354-5.436-5.5,0-4.349,1.285-5.562,5.9-5.56C234.064,451.517,235.279,452.807,235.28,457.018Zm-7.2-1.673v3.386h3.482v-3.386Z" transform="translate(-20.999 -111.671)" fill="#b09a51"/>
      <path id="Path_842" data-name="Path 842" d="M235.28,414.229c0,4.433-1.094,5.549-5.448,5.55s-5.627-1.236-5.628-5.45c0-4.272,1.373-5.629,5.7-5.626C234,408.708,235.279,410.018,235.28,414.229Zm-7.249,2.12c1.313-.237,2.643-.148,3.458-.753a2.8,2.8,0,0,0-.009-2.674c-.868-.566-2.188-.438-3.449-.615Z" transform="translate(-20.999 -83.676)" fill="#b09a51"/>
      <path id="Path_843" data-name="Path 843" d="M235.28,371.691c0,4.375-1.234,5.674-5.4,5.677-4.306,0-5.676-1.361-5.674-5.65,0-4.2,1.277-5.428,5.651-5.426C234.143,366.294,235.277,367.423,235.28,371.691Zm-3.464,1.868c-.187-1.329,0-2.712-.607-3.413a2.868,2.868,0,0,0-2.822-.011c-.589.809-.4,2.182-.556,3.424Z" transform="translate(-20.999 -55.942)" fill="#b09a51"/>
      <path id="Path_844" data-name="Path 844" d="M357.769,366.292c4.4,0,5.51,1.1,5.511,5.486,0,4.317-1.249,5.59-5.49,5.59s-5.592-1.384-5.586-5.737C352.209,367.558,353.528,366.292,357.769,366.292Zm2.033,7.344c-.174-1.374.029-2.753-.567-3.465-.428-.512-2.465-.535-2.819-.059-.6.8-.431,2.176-.6,3.408.649.057.981.106,1.314.112C357.874,373.645,358.617,373.636,359.8,373.636Z" transform="translate(-104.701 -55.942)" fill="#b09a51"/>
      <path id="Path_845" data-name="Path 845" d="M309.792,371.794c0-4.4,1.1-5.5,5.493-5.5,4.312,0,5.583,1.25,5.583,5.5s-1.389,5.586-5.743,5.581C311.059,377.363,309.792,376.039,309.792,371.794Zm7.345,1.76c0-.858.011-1.54,0-2.222-.009-.391-.061-.782-.09-1.146-3.425-.9-4.27-.054-3.349,3.368Z" transform="translate(-76.967 -55.942)" fill="#b09a51"/>
      <path id="Path_846" data-name="Path 846" d="M357.752,457.043c2.923-2.925,5.562-5.567,8.2-8.207a13.249,13.249,0,0,1,1.119-1.079,1.78,1.78,0,0,1,2.627.083,1.65,1.65,0,0,1-.042,2.471c-.658.724-1.363,1.406-2.055,2.1q-3.848,3.854-7.7,7.7c-1.569,1.559-2.371,1.565-3.9.052-1.435-1.418-2.855-2.849-4.283-4.274-.884-.882-1.256-1.9-.289-2.874.948-.953,1.992-.7,2.866.235C355.424,454.468,356.533,455.706,357.752,457.043Z" transform="translate(-103.818 -108.863)" fill="#b09a51"/>
    </g>
  </g>
</svg>
