<svg xmlns="http://www.w3.org/2000/svg" width="32.535" height="28.326" viewBox="0 0 32.535 28.326">
  <path id="Path_836" data-name="Path 836" d="M202.245,298.08a2.889,2.889,0,0,1,1.947-2.716,3.513,3.513,0,0,1,3.739.541c1.806,1.455,3.594,2.928,5.383,4.4.985.811,1.19.811,2.079-.091q8.6-8.724,17.189-17.45.143-.145.29-.288a1,1,0,0,1,1.347-.147.763.763,0,0,1,.16,1.2q-1.773,2.548-3.536,5.1-7,10.128-14.011,20.255a3.359,3.359,0,0,1-5.451.327q-.712-.773-1.416-1.551c-2.308-2.539-4.64-5.062-6.9-7.633a8.864,8.864,0,0,1-1-1.865Z" transform="translate(-202.065 -282.132)" fill="#b09a51"/>
</svg>
