<svg xmlns="http://www.w3.org/2000/svg" width="205" height="205" viewBox="0 0 205 205">
  <g id="Group_283" data-name="Group 283" transform="translate(-324 -4178)">
    <circle id="Ellipse_2" data-name="Ellipse 2" cx="102.5" cy="102.5" r="102.5" transform="translate(324 4178)" fill="#f9f9f9"/>
    <g id="Group_211" data-name="Group 211" transform="translate(193.047 3948.585)">
      <path id="Path_847" data-name="Path 847" d="M210.982,303.638a4.156,4.156,0,0,0,.556.315c3.737.422,3.738.422,4.924-3.108.168-.5.319-1.006.489-1.506,1.3-3.8,3.875-5.809,7.877-5.866,5.533-.08,11.069-.071,16.6-.005,4.1.049,6.677,2.036,8.014,5.926.513,1.49.665,3.565,1.723,4.284,1.15.782,3.161.344,4.8.356,4,.029,8.007-.024,12.01.018,6.492.069,10.426,4.048,10.427,10.5,0,14.542-.169,29.087.084,43.624.1,5.861-3.455,11.359-11.384,11.292-22.606-.191-45.215-.066-67.822-.072-.881,0-1.767-.028-2.644-.113a9.507,9.507,0,0,1-8.641-9.34c-.043-15.484-.072-30.968.021-46.451a9.017,9.017,0,0,1,5.918-8.631,1.755,1.755,0,0,0,1.3-1.941,28.287,28.287,0,0,1,.1-4.055,5.758,5.758,0,0,1,5.266-5.284,28.577,28.577,0,0,1,5.281.021,5.662,5.662,0,0,1,5.075,5.064C211.116,300.344,210.982,302.053,210.982,303.638Zm22.145,60.46q17.3,0,34.61,0c3.784,0,5.375-1.612,5.375-5.357q0-21.9,0-43.792c0-4.109-1.5-5.6-5.664-5.6-5.827-.007-11.654.01-17.482-.008-2.388-.007-2.932-.431-3.7-2.71-.614-1.835-1.238-3.668-1.816-5.515a3.059,3.059,0,0,0-3.262-2.373q-8.034.04-16.069,0a3.053,3.053,0,0,0-3.221,2.425c-.556,1.792-1.177,3.564-1.773,5.344-.826,2.469-1.3,2.826-3.955,2.83-5.886.011-11.772-.012-17.658.01-3.647.014-5.253,1.654-5.253,5.3q0,21.808,0,43.615c0,4.39,1.423,5.834,5.784,5.835Q216.086,364.1,233.126,364.1ZM206.1,303.946c-.333-1.872-.17-3.832-1.065-4.928-.554-.677-3.521-.569-3.98.126-.794,1.2-.481,3.137-.636,4.8Z" transform="translate(0 0)" fill="#b09a51"/>
      <path id="Path_848" data-name="Path 848" d="M296.207,367.322a23.826,23.826,0,1,1-23.793-23.768A23.815,23.815,0,0,1,296.207,367.322Zm-5.295.15a18.532,18.532,0,1,0-18.579,18.44A18.512,18.512,0,0,0,290.912,367.471Z" transform="translate(-39.193 -32.426)" fill="#b09a51"/>
      <path id="Path_849" data-name="Path 849" d="M223.978,358.747a25.859,25.859,0,0,1-3.154-.025,2.315,2.315,0,0,1-2.141-2.559,2.274,2.274,0,0,1,2.192-2.509,48.046,48.046,0,0,1,6.136.013,2.261,2.261,0,0,1,2.14,2.549,2.327,2.327,0,0,1-2.193,2.518,26.031,26.031,0,0,1-2.98.022Z" transform="translate(-19.874 -38.899)" fill="#b09a51"/>
      <path id="Path_850" data-name="Path 850" d="M401.388,353.627A2.606,2.606,0,1,1,398.654,356,2.548,2.548,0,0,1,401.388,353.627Z" transform="translate(-136.26 -38.938)" fill="#b09a51"/>
      <path id="Path_851" data-name="Path 851" d="M305.012,386.786a13.227,13.227,0,1,1-13.225-13.228A13.212,13.212,0,0,1,305.012,386.786Zm-13.259-7.919A7.918,7.918,0,1,0,299.7,386.8,7.883,7.883,0,0,0,291.753,378.867Z" transform="translate(-58.598 -51.831)" fill="#b09a51"/>
    </g>
  </g>
</svg>
