<svg xmlns="http://www.w3.org/2000/svg" width="205" height="205" viewBox="0 0 205 205">
  <g id="Group_285" data-name="Group 285" transform="translate(-324 -4178)">
    <circle id="Ellipse_2" data-name="Ellipse 2" cx="102.5" cy="102.5" r="102.5" transform="translate(324 4178)" fill="#f9f9f9"/>
    <g id="Group_213" data-name="Group 213" transform="translate(165.991 3906.966)">
      <path id="Path_855" data-name="Path 855" d="M295.437,401.948q-13.558,0-27.117,0c-5.611-.006-8.653-3.917-7.209-9.373q5.231-19.751,10.558-39.477a10.581,10.581,0,0,1,10.545-8.047q27.117-.029,54.234,0c5.657.005,8.752,3.822,7.32,9.3q-5.225,19.982-10.7,39.9a10.252,10.252,0,0,1-10.286,7.7Q309.107,401.96,295.437,401.948Zm-24.7-25.568c6.146-3.495,11.7-6.66,17.264-9.814,2.753-1.561,3.462-1.4,5.334,1.236,3.619,5.091,7.226,10.19,10.92,15.4,4.623-3.011,9.111-5.932,13.6-8.856,3.909-2.548,3.907-2.548,7.751.25,2.013,1.465,4.033,2.921,6.241,4.519,2.4-8.908,4.71-17.367,6.945-25.846.6-2.275-.026-3-2.424-3.014-5.6-.033-11.2-.012-16.8-.012q-18.477,0-36.953.005c-3.078,0-5.052,1.081-5.772,3.608C274.772,361.131,272.872,368.458,270.738,376.379Zm18.94-4.865c-6.81,3.877-13.478,7.651-20.107,11.492a2.825,2.825,0,0,0-1.023,1.6c-.847,3.006-1.62,6.033-2.4,9.058-.63,2.452-.132,3.183,2.379,3.186q27.094.034,54.19,0c2.885-.005,4.674-1.473,5.515-4.315.611-2.067,1.03-4.2,1.73-6.231a2.151,2.151,0,0,0-.976-2.95,70.9,70.9,0,0,1-5.976-4.326,2.064,2.064,0,0,0-2.917-.055c-4.517,3.032-9.1,5.972-13.658,8.938-3.171,2.061-3.757,1.942-5.96-1.165Z" transform="translate(-29.65)" fill="#b09a51"/>
      <path id="Path_856" data-name="Path 856" d="M227.51,374.947c3.724,0,7.448.02,11.172-.009,1.732-.013,2.975.58,3.013,2.476s-1.162,2.563-2.916,2.56q-11.507-.019-23.014,0c-1.752,0-2.951-.67-2.9-2.573s1.3-2.475,3.027-2.462C219.764,374.967,223.637,374.947,227.51,374.947Z" transform="translate(-3.228 -16.497)" fill="#b09a51"/>
      <path id="Path_857" data-name="Path 857" d="M217.18,435.976c-2.385,0-4.769-.012-7.154.006-1.709.013-3-.552-3.017-2.469-.014-1.874,1.184-2.566,2.932-2.562q7.378.017,14.755,0c1.757,0,2.934.724,2.911,2.586-.022,1.754-1.179,2.437-2.826,2.436Q220.981,435.972,217.18,435.976Z" transform="translate(0 -47.4)" fill="#b09a51"/>
      <path id="Path_858" data-name="Path 858" d="M229.674,407.969c-2.231,0-4.462,0-6.694,0-1.749.007-2.95-.72-2.9-2.58.042-1.7,1.164-2.445,2.825-2.442,4.463.006,8.925.019,13.388-.007,1.794-.011,2.956.821,2.928,2.59-.026,1.644-1.162,2.459-2.85,2.441C234.137,407.95,231.905,407.968,229.674,407.969Z" transform="translate(-7.208 -31.947)" fill="#b09a51"/>
      <path id="Path_859" data-name="Path 859" d="M360.574,365.923c5.535.026,9.1,4.611,7.664,9.98a12.048,12.048,0,0,1-10.112,9.216c-5.92,1.1-10.475-3.89-9.209-9.854A12.379,12.379,0,0,1,360.574,365.923Zm2.859,7.859a2.788,2.788,0,0,0-3.254-2.821,7.632,7.632,0,0,0-6.344,5.773,2.653,2.653,0,0,0,2.437,3.307C359.449,380.458,363.428,376.981,363.433,373.782Z" transform="translate(-78.171 -11.524)" fill="#b09a51"/>
    </g>
  </g>
</svg>
