<svg xmlns="http://www.w3.org/2000/svg" width="205" height="205" viewBox="0 0 205 205">
  <g id="Group_284" data-name="Group 284" transform="translate(-324 -4178)">
    <circle id="Ellipse_2" data-name="Ellipse 2" cx="102.5" cy="102.5" r="102.5" transform="translate(324 4178)" fill="#f9f9f9"/>
    <g id="Group_212" data-name="Group 212" transform="translate(207.887 3956.001)">
      <path id="Path_852" data-name="Path 852" d="M253.893,285q13.562,0,27.124,0c5.34,0,8.688,3.372,8.689,8.746q.006,20.048,0,40.1c0,5.236-3.346,8.707-8.581,8.717q-27.376.053-54.753.014c-3.83,0-6.458-1.906-8.17-5.208a3.265,3.265,0,0,1-.29-1.45c-.031-14.376-.088-28.751-.037-43.127a7.827,7.827,0,0,1,8.052-7.782C235.249,284.987,244.571,285,253.893,285Zm30.431,36.609v-1.766q0-12.975,0-25.95c0-2.6-.924-3.508-3.558-3.508q-26.961,0-53.922,0c-2.79,0-3.61.808-3.611,3.589q-.008,16.935,0,33.87c0,.471.065.942.127,1.79,3.889-3.912,7.511-7.573,11.154-11.213,3.026-3.023,6.6-3.066,9.635-.07,1.306,1.289,2.484,2.708,3.891,4.254.481-.617.678-.884.89-1.138,4.02-4.835,8.173-9.567,12.017-14.539a6.672,6.672,0,0,1,10.669-.2C275.574,311.681,279.836,316.388,284.324,321.614ZM224,336.75a24.027,24.027,0,0,0,3.022.417q19.208.037,38.416.017c5.111,0,10.222-.01,15.333.006,1.372,0,2.574-.263,3.26-1.6.821-1.605.26-5.728-.933-7.115q-7.578-8.812-15.138-17.638c-1.494-1.745-1.7-1.77-3.154-.031q-7.008,8.409-14,16.831c-1.525,1.832-3.01,1.924-4.7.264-1.841-1.812-3.711-3.6-5.463-5.5-.979-1.059-1.62-.938-2.576.036-4.287,4.369-8.642,8.672-12.967,13.005C224.8,335.745,224.545,336.1,224,336.75Z" transform="translate(-28.332)" fill="#b09a51"/>
      <path id="Path_853" data-name="Path 853" d="M238.012,420.356c-2.065-.536-4.774-1.22-7.473-1.943q-24.481-6.553-48.957-13.124c-4.921-1.323-7.386-5.359-6.155-10.255,1.9-7.542,3.887-15.061,5.859-22.584.536-2.046,1.839-2.958,3.483-2.542,1.561.4,2.259,1.918,1.735,3.946-1.918,7.422-3.864,14.836-5.789,22.256-.564,2.176.146,3.436,2.33,4.022q27.153,7.288,54.314,14.546c2.389.638,3.543-.092,4.154-2.522.546-2.17,1.081-4.344,1.651-6.508.463-1.756,1.823-2.7,3.3-2.336,1.571.387,2.326,1.866,1.877,3.713-.594,2.447-1.149,4.906-1.816,7.333C245.542,417.923,242.272,420.387,238.012,420.356Z" transform="translate(0 -56.218)" fill="#b09a51"/>
      <path id="Path_854" data-name="Path 854" d="M264.1,324.177a7.136,7.136,0,1,1-7.119-7.158A7.157,7.157,0,0,1,264.1,324.177Zm-5.359.578c-.1-1.688-.772-2.491-1.83-2.257a2.634,2.634,0,0,0-1.6,1.7,1.431,1.431,0,0,0,1.716,1.726C257.723,325.829,258.327,325.058,258.743,324.756Z" transform="translate(-49.528 -21.225)" fill="#b09a51"/>
    </g>
  </g>
</svg>
