<svg xmlns="http://www.w3.org/2000/svg" width="260" height="115.422" viewBox="0 0 260 115.422">
  <g id="Group_182" data-name="Group 182" transform="translate(189.026 -1300.518)">
    <path id="Path_817" data-name="Path 817" d="M78.616,1477.308a16.293,16.293,0,0,1-6.226,1.858,49.739,49.739,0,0,1-17.438-1.506c-2.912-.693-5.792-1.537-8.654-2.42a3.478,3.478,0,0,0-4,1.088,9.984,9.984,0,0,0-2.465,7.49,2.237,2.237,0,0,0,2.64,2.369,196.632,196.632,0,0,0,26.007-1.918c4.513-.7,8.964-1.808,13.432-2.785a1.26,1.26,0,0,1,1.383.352c1.719,1.766,3.475,3.5,5.146,5.171l-57.9,57.937c-.172-.161-.393-.355-.6-.562q-8.287-8.276-16.572-16.554c-.347-.347-.681-.611-.452-1.246,4.858-13.458,10.265-26.671,17.448-39.089a82.016,82.016,0,0,1,12.938-17.514A30.386,30.386,0,0,1,54,1462.7a26,26,0,0,1,8.252-1.349,1.3,1.3,0,0,1,.853.36q7.64,7.6,15.249,15.222A2.973,2.973,0,0,1,78.616,1477.308Z" transform="translate(-161.91 -129.004)" fill="#fff"/>
    <path id="Path_818" data-name="Path 818" d="M-78.815,1361.783c.346-3.134.488-6.306,1.083-9.391.977-5.067,2.237-10.079,3.41-15.107.181-.778.328-1.488-.323-2.1a1.891,1.891,0,0,0-2.034-.242c-3.763,1.091-7.533,2.159-11.3,3.23-.27.077-.551.115-.79.164l37.811-37.814,29.466,29.446c-.786.161-1.679.328-2.565.527a31.842,31.842,0,0,0-13.723,7.324c-6.154,5.257-10.928,11.662-15.231,18.448a206.86,206.86,0,0,0-13.37,25.641c-.271.6-.552,1.189-.963,2.071-.055-.582-.1-.879-.108-1.177a120.349,120.349,0,0,1,1.354-20.479c.617-4.331,1.465-8.63,2.226-12.94.147-.834.146-1.593-.671-2.088-.865-.525-1.557-.144-2.226.438a49.063,49.063,0,0,0-11.572,13.888,1.265,1.265,0,0,1-.183.214Z" transform="translate(-80.413 0)" fill="#fff"/>
    <path id="Path_819" data-name="Path 819" d="M-163.069,1515.978c-.632,4.219-1.362,8.335-1.845,12.48a92.359,92.359,0,0,0,.025,22.954c.128.96.5,1.644,1.52,1.769.87.107,1.468-.449,1.783-1.616a78.7,78.7,0,0,1,8.874-21.135c.155-.251.324-.494.495-.735.03-.042.1-.053.237-.117-3.386,12.158-3.433,24.416-1.65,36.569l-35.4-35.4c.06-.064.274-.308.5-.536q5.276-5.275,10.566-10.534a2.726,2.726,0,0,1,1.229-.723c4.4-.992,8.809-1.941,13.216-2.9C-163.357,1516.016-163.2,1516-163.069,1515.978Z" transform="translate(0 -172.818)" fill="#fff"/>
    <path id="Path_820" data-name="Path 820" d="M981.669,1455.87c-.2.447-.342.731-.457,1.025-1.452,3.71-2.938,7.407-4.321,11.142a1.585,1.585,0,0,1-1.745,1.066c-.222,0-.545-.47-.659-.784-1.582-4.329-3.132-8.67-4.7-13-.291-.8-.616-1.6-.956-2.382a2.483,2.483,0,0,0-2.194-1.736c-.213-.014-.412-.233-.525-.575h6.736l.1.269a2.751,2.751,0,0,1-.771.336c-.953.094-1.241.641-1.09,1.5a8.011,8.011,0,0,0,.345,1.334q2.135,5.9,4.3,11.785c.085.232.207.451.405.879.368-.951.668-1.7.948-2.459q1.766-4.77,3.522-9.544a2.46,2.46,0,0,0-1.619-3.421,3.928,3.928,0,0,1-.712-.437l.083-.283h6.531l.116.314a7.076,7.076,0,0,1-.859.419c-1.1.368-1.547.99-1.192,1.99,1.554,4.373,3.159,8.727,4.749,13.087.02.054.091.09.215.207.374-.982.743-1.923,1.093-2.87q1.746-4.725,3.477-9.455a8.332,8.332,0,0,0,.394-1.323c.216-1.163-.007-1.466-1.134-1.724a3.856,3.856,0,0,1-.668-.29l.069-.274H997.5c-.28.245-.445.519-.624.527a2.688,2.688,0,0,0-2.412,2.034c-1.389,3.451-2.754,6.912-4.125,10.371-.594,1.5-1.256,2.979-1.743,4.513-.3.942-1.012.99-1.689.988-.254,0-.607-.566-.744-.937-1.378-3.738-2.721-7.488-4.075-11.234C981.976,1456.625,981.853,1456.334,981.669,1455.87Z" transform="translate(-926.521 -120.362)" fill="#fff"/>
    <path id="Path_821" data-name="Path 821" d="M653.39,1468.6a2.577,2.577,0,0,1,.741-.292,1.561,1.561,0,0,0,1.566-1.584,13.4,13.4,0,0,0,.1-1.573q.011-5.576,0-11.152a8.17,8.17,0,0,0-.053-.985c-.151-1.225-.5-1.571-1.7-1.813a2.747,2.747,0,0,1-.681-.355l.094-.246h1.631c2.37,0,4.741-.042,7.11.015a8.738,8.738,0,0,1,8.817,8.585c.263,5.115-2.788,9.09-7.771,9.582-3.221.318-6.5.06-9.752.06Zm4.552-16.55c-.037.417-.1.835-.107,1.254q-.039,4.937-.055,9.875c0,.954-.006,1.91.041,2.863.062,1.266.3,1.482,1.556,1.5.922.011,1.846.034,2.766-.01a6.331,6.331,0,0,0,6.025-4.325,9.507,9.507,0,0,0,.153-6.488,6.219,6.219,0,0,0-5.565-4.636A47.244,47.244,0,0,0,657.941,1452.048Z" transform="translate(-675.672 -120.365)" fill="#fff"/>
    <path id="Path_822" data-name="Path 822" d="M830.633,1468.4c-5.352.01-8.909-3.649-8.927-9.181-.018-5.664,3.681-9.579,9.06-9.59,5.331-.011,9.105,3.855,9.109,9.331C839.879,1464.495,836.07,1468.385,830.633,1468.4Zm-6.825-9.436c.091.762.135,1.554.287,2.325a6.766,6.766,0,0,0,13.2.7,9.742,9.742,0,0,0-.116-6.3,6.683,6.683,0,0,0-7.261-4.545,6.369,6.369,0,0,0-5.826,5.539C823.949,1457.417,823.9,1458.175,823.809,1458.959Z" transform="translate(-810.697 -119.597)" fill="#fff"/>
    <path id="Path_823" data-name="Path 823" d="M541.5,1450.792h6.626l.078.245a2.5,2.5,0,0,1-.732.31,1.516,1.516,0,0,0-1.58,1.572c-.049,3.554-.181,7.118.024,10.661.16,2.771,2.181,4.184,5.183,4.1,2.865-.083,4.662-1.644,4.789-4.46.135-2.99.045-5.991.049-8.987,0-.329-.013-.659-.04-.987-.1-1.25-.5-1.664-1.706-1.9a2.756,2.756,0,0,1-.694-.36l.093-.236h6.257l.107.246a2.465,2.465,0,0,1-.646.352c-1.222.242-1.611.568-1.642,1.818-.081,3.291-.073,6.584-.136,9.876-.052,2.666-1.112,4.764-3.714,5.743a8.712,8.712,0,0,1-6.835-.243,5.36,5.36,0,0,1-3.139-5.191c-.066-2.765-.02-5.532-.032-8.3,0-.592-.015-1.187-.072-1.775-.135-1.385-.4-1.653-1.769-1.933a2.661,2.661,0,0,1-.577-.272Z" transform="translate(-585.863 -120.497)" fill="#fff"/>
    <path id="Path_824" data-name="Path 824" d="M370.538,1468.446c-1.308-.346-2.888-.757-4.464-1.184a.939.939,0,0,1-.771-1.32c.158-.567.158-1.176.3-1.749.057-.226.314-.4.479-.6.157.173.42.326.456.521a3.261,3.261,0,0,0,3.17,2.764,11.505,11.505,0,0,0,3.133-.049,3.14,3.14,0,0,0,2.67-2.687,3.057,3.057,0,0,0-1.633-3.495c-1-.545-2.132-.857-3.186-1.314a25.045,25.045,0,0,1-3.382-1.588,4.088,4.088,0,0,1-1.746-4.409,3.934,3.934,0,0,1,2.824-3.367,11.44,11.44,0,0,1,7.557.314,1.037,1.037,0,0,1,.484.795,5.79,5.79,0,0,1-.221,1.558c-.051.21-.29.55-.4.534a.848.848,0,0,1-.616-.422,2.332,2.332,0,0,0-2-1.694,11.86,11.86,0,0,0-3.411-.012,2.809,2.809,0,0,0-.543,5.34c.862.4,1.794.648,2.681,1a25.917,25.917,0,0,1,3.357,1.415,4.742,4.742,0,0,1,2.364,5.22,4.5,4.5,0,0,1-3.543,3.817A34.64,34.64,0,0,1,370.538,1468.446Z" transform="translate(-444.569 -119.468)" fill="#fff"/>
    <path id="Path_825" data-name="Path 825" d="M459.087,1468.225H451.7l-.114-.293a4.026,4.026,0,0,1,.829-.3c1.194-.152,1.819-.531,1.83-1.548.056-4.865.025-9.73.025-14.809-1.631.074-3.231.088-4.813.263-.357.039-.665.626-.97.983a7.694,7.694,0,0,0-.5.731l-.331-.135c.056-1.092.112-2.184.173-3.377.628.063,1.138.156,1.647.157,3.889.014,7.778.04,11.666,0,1.711-.019,1.709-.09,1.825,1.633a9.944,9.944,0,0,1,.079,1.082,1.709,1.709,0,0,1-.243.555c-.17-.114-.462-.2-.49-.346-.235-1.214-1.113-1.442-2.141-1.451-1.212-.01-2.425,0-3.691,0a3.026,3.026,0,0,0-.091.5c0,4.479-.021,8.958.014,13.438.013,1.7.426,2.08,2.125,2.336a2.791,2.791,0,0,1,.662.286Z" transform="translate(-510.678 -119.694)" fill="#fff"/>
    <path id="Path_826" data-name="Path 826" d="M525.52,1586.02c.024-.428.031-.857.075-1.282a5.651,5.651,0,0,1,11.251.006,13,13,0,0,1,0,2.561,5.65,5.65,0,0,1-11.248,0C525.551,1586.877,525.545,1586.448,525.52,1586.02Zm9.942-.1a19.253,19.253,0,0,0-.3-2.013,3.6,3.6,0,0,0-3.769-2.977c-2.144-.036-3.591.9-4.024,2.891a11.916,11.916,0,0,0-.169,3.71,4.072,4.072,0,0,0,8.094,0C535.363,1587.046,535.4,1586.553,535.462,1585.922Z" transform="translate(-573.129 -223.867)" fill="#fff"/>
    <path id="Path_827" data-name="Path 827" d="M617.577,1587.446c.567.943,1.107,1.838,1.645,2.735.519.866,1.035,1.733,1.575,2.637a1.608,1.608,0,0,1-2.229-.893c-.519-1.1-1.258-2.087-1.8-3.172a1.463,1.463,0,0,0-1.683-.982,11.052,11.052,0,0,1-1.493.011v5.1h-1.361v-12.312c1.993,0,4.023-.332,5.984.431a2.825,2.825,0,0,1,1.789,2.622,3.242,3.242,0,0,1-1.369,3.186C618.313,1587.03,617.969,1587.212,617.577,1587.446Zm-3.939-.812a30.955,30.955,0,0,0,3.314-.286c1.089-.208,1.58-1.064,1.554-2.312-.024-1.165-.474-1.858-1.591-2.05a30.692,30.692,0,0,0-3.277-.225Z" transform="translate(-642.676 -224.569)" fill="#fff"/>
    <path id="Path_828" data-name="Path 828" d="M745.358,1587.745v5.093h-1.367v-12.326c2.047.042,4.126-.371,6.089.495,2.183.963,2.366,4.36.354,5.759-.318.221-.664.4-1.065.639.564.938,1.1,1.832,1.641,2.728.519.866,1.036,1.734,1.58,2.644a1.587,1.587,0,0,1-2.222-.88c-.52-1.1-1.27-2.081-1.8-3.173a1.527,1.527,0,0,0-1.779-.989A11.626,11.626,0,0,1,745.358,1587.745Zm.067-1.152a31.932,31.932,0,0,0,3.257-.266,1.99,1.99,0,0,0,1.617-2.266c-.007-1.215-.47-1.932-1.625-2.125a29.983,29.983,0,0,0-3.25-.2Z" transform="translate(-748.362 -224.53)" fill="#fff"/>
    <path id="Path_829" data-name="Path 829" d="M769.944,1469.392h-6.589l-.108-.192c.183-.131.35-.337.552-.382,1.428-.312,1.767-.579,1.779-2.009q.056-6.51-.021-13.021c-.02-1.549-.314-1.777-1.792-2.088a1.4,1.4,0,0,1-.422-.194c-.037-.022-.027-.121-.06-.308h6.682l.1.156a2.752,2.752,0,0,1-.684.353c-1.219.24-1.625.63-1.669,1.911-.065,1.873-.071,3.749-.073,5.623,0,2.4,0,4.8.047,7.2.036,1.753.21,1.913,1.932,2.382.169.046.3.231.45.351Z" transform="translate(-763.807 -120.859)" fill="#fff"/>
    <path id="Path_830" data-name="Path 830" d="M814.6,1592.51c-.961.3-1.515.065-1.812-.921-.292-.969-.52-2.255-1.225-2.718-.746-.49-2.023-.214-3.067-.2-2.244.033-1.6-.4-2.469,1.7a7,7,0,0,0-.458,1.2c-.214,1.014-.813,1.254-1.813.937.309-.8.613-1.588.924-2.378q1.8-4.595,3.607-9.189c.17-.435.288-.819.922-.818s.75.37.922.812q2.115,5.427,4.245,10.848C814.47,1592.013,814.528,1592.265,814.6,1592.51Zm-5.4-10.552-1.94,5.3h3.9Z" transform="translate(-796.299 -224.262)" fill="#fff"/>
    <path id="Path_831" data-name="Path 831" d="M462.163,1587.948v4.807h-1.376v-12.427c1.732.1,3.441.076,5.106.336a2.94,2.94,0,0,1,2.654,2.871c.166,1.861-.508,3.255-2.074,3.857a13.094,13.094,0,0,1-2.784.545A11.452,11.452,0,0,1,462.163,1587.948Zm.043-1.135a31.048,31.048,0,0,0,3.4-.437,2.028,2.028,0,0,0,1.483-2.191c.011-.958-.28-1.872-1.252-2.126a29.24,29.24,0,0,0-3.635-.5Z" transform="translate(-521.207 -224.432)" fill="#fff"/>
    <path id="Path_832" data-name="Path 832" d="M986.409,1580.281l-.4,1.087c-1.093-.158-2.119-.388-3.153-.436a1.98,1.98,0,0,0-2.25,1.369,2.049,2.049,0,0,0,1.408,2.508c.923.433,1.9.75,2.812,1.207a3.225,3.225,0,0,1-.709,6.11,17.024,17.024,0,0,1-4.108.031c-1.151-.1-1.194-.3-1-1.55a22.2,22.2,0,0,0,2.685.465,5.05,5.05,0,0,0,2.31-.273,2.713,2.713,0,0,0,1.192-1.507,1.513,1.513,0,0,0-.779-1.858c-.868-.462-1.794-.814-2.694-1.216a3.808,3.808,0,0,1-2.514-2.455,3.019,3.019,0,0,1,2.184-3.923A7.733,7.733,0,0,1,986.409,1580.281Z" transform="translate(-936.794 -223.845)" fill="#fff"/>
    <path id="Path_833" data-name="Path 833" d="M672.83,1580.76h9.136v1.262h-3.854v11.072h-1.43v-11.021H672.83Z" transform="translate(-691.284 -224.779)" fill="#fff"/>
    <path id="Path_834" data-name="Path 834" d="M921.11,1580.819v1.243h-3.866v11.066H915.81V1582.09h-3.876v-1.271Z" transform="translate(-883.067 -224.826)" fill="#fff"/>
    <path id="Path_835" data-name="Path 835" d="M882.107,1593.237h-1.3v-12.308h1.3Z" transform="translate(-858.103 -224.914)" fill="#fff"/>
  </g>
</svg>
